<svg width="68" height="60" fill="none" xmlns="http://www.w3.org/2000/svg"><path fill-rule="evenodd" clip-rule="evenodd" d="M20.23 4.563c.45-.01 1.293-.311 1.79-.43.625-.151 1.462-.26 2.059-.337 6.974-.896 12.87.626 18.495 4.462.951.648 4.642 3.637 4.88 4.626L35.978 17.41l12.108 3.384.804 12.454 6.824-10.566L68 25.776l-7.95-9.8L66.783 5.29 54.925 9.83c-2.08-2.405-3.655-4.053-6.452-5.79-2.61-1.62-5.263-2.744-8.756-3.46C35.99-.186 32.253-.002 28.64.8c-1.567.348-3.156.926-4.534 1.547-.678.306-1.43.676-2.011 1.014-.71.412-1.291.837-1.864 1.202Z" fill="url(#a)"/><path fill-rule="evenodd" clip-rule="evenodd" d="M15.008 56.162c-.468-.128-3.126-2.448-3.536-2.863-3.582-3.635-5.738-7.155-7.23-12.493-2.128-7.612-.085-15.756 3.454-21.15C12.815 11.856 21.678 7 31.577 7.453c.802.037 2.065.25 2.924.383 3.847.598 6.67 1.992 9.542 3.547-.405-.64-3.297-2.416-4.256-2.95C31.062 3.57 19.65 4.218 11.58 9.965c-2.877 2.048-5.237 4.305-7.194 7.391-4.027 6.347-5.898 14.8-2.935 23.376 1.263 3.654 3.176 6.85 5.312 9.185 1.251 1.366 2.295 2.417 3.747 3.504.624.466 3.722 2.634 4.5 2.741l-.002-.001Z" fill="url(#b)"/><path fill-rule="evenodd" clip-rule="evenodd" d="M7.88 46.989c.27.73 1.653 2.548 2.252 3.264 2.439 2.915 5.732 5.609 9.273 7.173 8.855 3.91 17.943 3.167 25.97-2.006 6.21-4.002 8.428-8.7 10.893-15.155.269-.894 1.105-5.141.85-5.696-.002.002-.79 2.745-1.227 3.793-2.385 5.713-6.162 10.21-11.46 13.58a27.093 27.093 0 0 1-6.925 3.12c-6.077 1.745-11.308 1.657-17.387-.216-1.208-.373-2.515-.934-3.59-1.468-1.222-.606-2.106-1.139-3.15-1.818-3.055-1.99-4.93-4.19-5.498-4.571H7.88Z" fill="url(#c)"/><path d="M18.945 27.96v2.509h-4.087v8.003h-2.794V30.47H7.977V27.96h10.968ZM23.223 27.96v6.672l5.512-6.672h2.68v10.512h-2.794v-6.634l-5.513 6.634h-2.68V27.96h2.794ZM36.738 27.96l3.27 7.014h.076l3.535-7.014h3.365v10.512H44.19v-6.615l-3.06 6.615h-2.244l-3.004-6.615v6.615h-2.718V27.96h3.574Z" fill="#fff"/><path fill-rule="evenodd" clip-rule="evenodd" d="M15.008 56.162C7.46 52.16 4.015 44.874 3.086 41.549.055 30.445 2.622 23.493 6.161 18.1 11.279 10.3 19.99 5.773 29.89 6.227c4.434.203 10.222 2.202 14.154 5.157-.406-.641-3.297-2.416-4.257-2.951C31.062 3.57 19.65 4.219 11.58 9.965c-2.877 2.048-5.237 4.306-7.194 7.392-4.027 6.347-5.898 14.8-2.935 23.375 1.263 3.654 3.176 6.85 5.312 9.185 1.251 1.366 2.295 2.418 3.747 3.504.624.466 3.722 2.634 4.5 2.741h-.002Z" fill="url(#d)" fill-opacity=".4"/><path fill-rule="evenodd" clip-rule="evenodd" d="M7.88 46.989c4.241 5.404 9.105 7.89 12.517 9.397 8.052 2.871 16.17 2.4 24.458-2.66 3.375-2.06 11.14-9.231 12.262-19.158-.002.002-.79 2.745-1.227 3.793-2.385 5.713-6.162 10.211-11.46 13.58a27.098 27.098 0 0 1-6.925 3.12c-6.076 1.746-11.308 1.657-17.387-.216-1.207-.373-2.514-.934-3.59-1.467-1.222-.606-2.106-1.14-3.15-1.818-3.055-1.99-4.93-4.192-5.497-4.571H7.88Z" fill="url(#e)" fill-opacity=".369"/><path fill-rule="evenodd" clip-rule="evenodd" d="M20.23 4.563c2.456-1.337 4.618-1.945 7.797-2.528 7.215-1.323 11.992-.727 18.237 1.938 3.428 1.463 6.267 3.423 8.661 5.858-2.08-2.405-3.655-4.053-6.452-5.79-2.61-1.62-5.263-2.744-8.756-3.46C35.99-.186 32.252-.002 28.64.8c-1.567.348-3.156.926-4.534 1.547-.678.306-1.43.676-2.011 1.014-.71.412-1.291.837-1.864 1.202Z" fill="url(#f)"/><defs><linearGradient id="a" x1="23.894" y1="-9.568" x2="57.273" y2="20.98" gradientUnits="userSpaceOnUse"><stop stop-color="#3B00EC"/><stop offset=".322" stop-color="#7820F5"/><stop offset="1" stop-color="#B640FF"/></linearGradient><linearGradient id="b" x1="-14.005" y1="46.924" x2="28.614" y2="22.176" gradientUnits="userSpaceOnUse"><stop stop-color="#7B4FFF"/><stop offset=".2" stop-color="#9032FF"/><stop offset="1" stop-color="#A514FF"/></linearGradient><linearGradient id="c" x1="43.17" y1="68.67" x2="56.362" y2="35.044" gradientUnits="userSpaceOnUse"><stop stop-color="#3D00F2"/><stop offset=".2" stop-color="#8948F8"/><stop offset="1" stop-color="#D591FF"/></linearGradient><linearGradient id="d" x1="36.652" y1=".158" x2="-5.273" y2="42.371" gradientUnits="userSpaceOnUse"><stop stop-color="#C66BFF"/><stop offset=".2" stop-color="#D289FF"/><stop offset="1" stop-color="#DEA8FF"/></linearGradient><linearGradient id="e" x1="30.119" y1="58.644" x2="54.257" y2="31.899" gradientUnits="userSpaceOnUse"><stop stop-color="#A778FF"/><stop offset=".38" stop-color="#D3BBFF"/><stop offset="1" stop-color="#fff"/></linearGradient><linearGradient id="f" x1="34.804" y1="-3.415" x2="47.018" y2="18.595" gradientUnits="userSpaceOnUse"><stop stop-color="#3600D9"/><stop offset=".2" stop-color="#5C00D7"/><stop offset="1" stop-color="#8300D4"/></linearGradient></defs></svg>