<svg width="35" height="36" viewBox="0 0 35 36" fill="none" xmlns="http://www.w3.org/2000/svg">
<circle cx="17.5" cy="18" r="17.5" fill="#0070F0"/>
<path d="M22.7795 11.0177C22.7286 11.0312 20.859 11.7522 17.7771 12.944C17.0314 13.2319 16.0417 13.6166 15.5777 13.7968C15.1136 13.9744 14.6603 14.152 14.5718 14.1842C14.4833 14.2192 12.9625 14.8084 11.1922 15.4917C9.42188 16.1751 7.8474 16.7938 7.69451 16.8692C7.20634 17.1032 6.97298 17.3938 7.00249 17.7274C7.02394 17.9722 7.16342 18.1444 7.46383 18.295C7.53894 18.3327 8.02711 18.4995 8.55015 18.6663C9.07319 18.8304 9.93956 19.1048 10.4706 19.2743C11.0607 19.4599 11.4845 19.581 11.5516 19.581C11.6857 19.581 11.7796 19.5353 12.2087 19.2609C12.3858 19.1452 12.9142 18.8116 13.3782 18.5183C13.8422 18.2224 14.3331 17.913 14.4645 17.8269C14.5986 17.7435 14.7783 17.6278 14.8669 17.574C14.9554 17.5175 15.1378 17.4045 15.2692 17.3185C15.5321 17.1517 19.4294 14.6846 19.9095 14.3806C20.0731 14.2784 20.175 14.2246 20.1375 14.2623C20.0999 14.2972 19.3114 15.0155 18.3806 15.8576C17.4526 16.697 16.4574 17.5982 16.1704 17.8592C15.8834 18.1175 15.2021 18.7363 14.655 19.2313C14.1078 19.729 13.6411 20.1702 13.6196 20.2132C13.574 20.3101 13.574 20.4661 13.6196 20.5764C13.6598 20.6733 13.4533 20.5146 16.8383 23.0246C18.2036 24.0362 19.4106 24.9321 19.5233 25.0155C19.821 25.2388 20.0892 25.3437 20.3923 25.3598C20.7303 25.376 20.8832 25.3168 21.0977 25.0854C21.3713 24.7922 21.2238 25.4056 22.75 18.182C22.8305 17.8054 23.1148 16.4602 23.383 15.1958C24.0187 12.1961 23.9999 12.2876 23.9999 12.0616C23.9999 11.5881 23.7585 11.1899 23.3911 11.0527C23.2516 11.0016 22.9244 10.9828 22.7795 11.0177Z" fill="white"/>
</svg>
